<svg width="291" height="40" viewBox="0 0 291 40" fill="none" xmlns="http://www.w3.org/2000/svg">
<g clip-path="url(#clip0_153_505)">
<path d="M97.4807 5.78394C99.9581 5.81297 102.119 6.23878 103.965 7.06459C105.81 7.8904 107.345 8.98394 108.568 10.3485C109.794 11.7098 110.716 13.2549 111.336 14.9743C111.955 16.6968 112.265 18.4517 112.265 20.2388C112.265 22.0259 111.955 23.7839 111.336 25.5033C110.716 27.2259 109.794 28.7646 108.568 30.1291C107.342 31.4904 105.806 32.5872 103.965 33.413C102.119 34.2388 99.9581 34.6646 97.4807 34.6936H80.9226V28.913H97.442C98.7065 28.8872 99.8097 28.6227 100.745 28.1291C101.681 27.6323 102.465 26.9807 103.1 26.1678C103.732 25.3549 104.206 24.4323 104.526 23.4001C104.842 22.3678 105 21.3162 105 20.242C105 19.1678 104.842 18.1097 104.526 17.0614C104.21 16.0162 103.726 15.0872 103.081 14.2743C102.432 13.4614 101.629 12.8097 100.665 12.313C99.7 11.8162 98.571 11.571 97.2774 11.571H80.9258V5.79039H97.4839L97.4807 5.78394Z" fill="#00BCBC"/>
<path d="M40.8033 5.78405V11.5647H24.4517C23.1581 11.5647 22.0291 11.8131 21.0646 12.3066C20.1001 12.8034 19.2969 13.455 18.6485 14.2679C18.0033 15.0808 17.5194 16.0099 17.2033 17.055C16.8872 18.1034 16.7291 19.1615 16.7291 20.2357C16.7291 21.3098 16.8872 22.3615 17.2033 23.3937C17.5194 24.426 17.9936 25.3486 18.6291 26.1615C19.2614 26.9744 20.0485 27.626 20.984 28.1228C21.9194 28.6195 23.0227 28.8808 24.2872 28.9066H40.8065V34.6873H24.2485C21.7711 34.6615 19.6098 34.2324 17.7646 33.4066C15.9194 32.5808 14.384 31.4873 13.1614 30.1228C11.9356 28.7615 11.013 27.2195 10.3936 25.4969C9.77428 23.7776 9.4646 22.0227 9.4646 20.2324C9.4646 18.4421 9.77428 16.6873 10.3936 14.9679C11.013 13.2486 11.9356 11.7066 13.1614 10.3421C14.3872 8.98082 15.9227 7.88405 17.7646 7.05824C19.6098 6.23244 21.7711 5.80662 24.2485 5.77759H40.8065L40.8033 5.78405Z" fill="#00BCBC"/>
<path d="M140.642 11.6065V5.78394H120.648H114.832H114.826V34.6904H114.955H140.642V28.8678H120.648V23.1291H140.642V17.3485H120.648V11.6065H140.642Z" fill="#00BCBC"/>
<path d="M169.864 14.8678C169.203 14.2903 168.413 13.7677 167.49 13.2968C166.568 12.829 165.59 12.4355 164.558 12.1194C163.526 11.8032 162.474 11.5548 161.4 11.3774C160.326 11.2 159.306 11.1097 158.345 11.1097C156.803 11.1097 155.523 11.3355 154.506 11.7903C153.487 12.2452 152.977 12.9677 152.977 13.9581C152.977 14.5903 153.268 15.1 153.845 15.4871C154.423 15.8742 155.194 16.1968 156.158 16.4581C157.123 16.7194 158.21 16.9548 159.419 17.1613C160.632 17.3677 161.877 17.6161 163.158 17.9032C164.439 18.1935 165.684 18.5419 166.897 18.9548C168.106 19.3677 169.193 19.9129 170.158 20.5871C171.123 21.2613 171.893 22.0936 172.471 23.0871C173.048 24.0774 173.339 25.2903 173.339 26.7226C173.339 28.3194 172.961 29.6807 172.203 30.8097C171.445 31.9387 170.429 32.8613 169.148 33.5774C167.868 34.2936 166.393 34.8161 164.729 35.1452C163.064 35.4742 161.335 35.6419 159.545 35.6419C158.084 35.6419 156.613 35.5387 155.126 35.3323C153.639 35.1258 152.206 34.829 150.832 34.4452C149.455 34.0613 148.174 33.6 146.993 33.0613C145.81 32.5258 144.777 31.9129 143.897 31.2226L147.326 25.4419C148.013 26.0742 148.868 26.6452 149.887 27.1548C150.906 27.6645 152 28.0903 153.171 28.4355C154.342 28.7807 155.539 29.0484 156.764 29.2419C157.99 29.4355 159.152 29.5323 160.255 29.5323C161.026 29.5323 161.742 29.4774 162.403 29.3677C163.064 29.2581 163.642 29.1 164.139 28.8936C164.635 28.6871 165.019 28.4129 165.297 28.0677C165.571 27.7226 165.71 27.3323 165.71 26.8903C165.71 26.229 165.419 25.6935 164.842 25.2806C164.264 24.8677 163.5 24.5226 162.548 24.2484C161.597 23.9742 160.519 23.7194 159.306 23.4839C158.093 23.2516 156.848 22.9871 155.568 22.7C154.287 22.4097 153.042 22.0548 151.829 21.6258C150.616 21.2 149.539 20.6484 148.587 19.9742C147.635 19.3 146.874 18.4677 146.294 17.4742C145.716 16.4839 145.426 15.271 145.426 13.8387C145.426 12.2419 145.771 10.8871 146.458 9.77096C147.145 8.65483 148.068 7.7484 149.226 7.04517C150.381 6.34194 151.723 5.8258 153.252 5.49677C154.781 5.16773 156.384 5 158.061 5C159.439 5 160.835 5.09678 162.252 5.29033C163.668 5.48388 165.039 5.76452 166.361 6.13549C167.684 6.50646 168.935 6.95484 170.119 7.47742C171.303 8 172.348 8.59355 173.258 9.25161L169.871 14.8678H169.864Z" fill="white"/>
<path d="M176.264 5.78394H191.916C193.487 5.78394 194.868 6.05168 196.068 6.59039C197.264 7.12587 198.258 7.83556 199.042 8.7162C199.826 9.59685 200.419 10.6033 200.816 11.7323C201.216 12.8614 201.416 14.0162 201.416 15.2001C201.416 16.3839 201.216 17.5388 200.816 18.6678C200.416 19.7968 199.826 20.8001 199.042 21.6807C198.258 22.5614 197.268 23.271 196.068 23.8065C194.871 24.342 193.487 24.613 191.916 24.613H183.245V34.6904H176.268V5.78394H176.264ZM183.245 18.7936H191.174C192.329 18.7936 193.197 18.4226 193.774 17.6775C194.352 16.9355 194.642 16.1065 194.642 15.2001C194.642 14.7614 194.574 14.3259 194.435 13.9001C194.297 13.4743 194.084 13.0872 193.797 12.7452C193.506 12.4001 193.142 12.1259 192.703 11.9194C192.261 11.713 191.755 11.6097 191.174 11.6097H183.245V18.7936Z" fill="white"/>
<path d="M229.497 28.8678V34.6904H203.439V5.78394H229.206V11.6065H210.416V17.3452H226.439V23.1259H210.416V28.8646H229.493L229.497 28.8678Z" fill="white"/>
<path d="M257.535 28.8678V34.6904H232.055V5.78394H239.032V28.8678H257.532H257.535Z" fill="white"/>
<path d="M285.161 28.8678V34.6904H259.681V5.78394H266.658V28.8678H285.158H285.161Z" fill="white"/>
<path d="M59.1323 7.12902L59.9936 4.94194V0.090332L37.0742 16.6839V23.4193L59.9936 40.0129V35.171L59.1323 32.9839C57.0871 27.8 52.9839 23.6935 47.7968 21.6484L43.7581 20.0581L47.7968 18.4645C52.9839 16.4194 57.0871 12.3161 59.1323 7.12902Z" fill="#00BCBC"/>
<path d="M61.4128 0.090332V4.84194L62.3161 7.12902C64.3612 12.3161 68.4645 16.4194 73.6516 18.4645L77.687 20.0581L73.6516 21.6484C68.4645 23.6935 64.3612 27.8 62.3161 32.9839L61.4128 35.2742V40.0129L84.3322 23.4193V16.6839L61.4128 0.090332Z" fill="#00BCBC"/>
<path d="M60.7225 15.355L61.1644 16.4743C61.7322 17.9098 62.8677 19.0485 64.3064 19.6163L65.4257 20.0582L64.3064 20.5001C62.8709 21.0679 61.7322 22.2034 61.1644 23.6421L60.7225 24.7614L60.2806 23.6421C59.7128 22.2066 58.5774 21.0679 57.1386 20.5001L56.0193 20.0582L57.1386 19.6163C58.5741 19.0485 59.7128 17.9131 60.2806 16.4743L60.7225 15.355Z" fill="white"/>
</g>
<defs>
<clipPath id="clip0_153_505">
<rect width="290.645" height="40" fill="white"/>
</clipPath>
</defs>
</svg>
